<svg width="156" height="228" viewBox="0 0 156 228" fill="none" xmlns="http://www.w3.org/2000/svg">
<path d="M150 6H6L30 222H126L150 6Z" fill="#3E98CB" stroke="#F5FBFE" stroke-width="12" stroke-linecap="round" stroke-linejoin="round"/>
<path d="M137.525 58C90 70 65.9897 34.2401 17.9774 58H16.9811L12.7498 18.0753L12 11H144L139.072 57.5L139.019 58H137.525Z" fill="#F5FBFE"/>
<path d="M137.525 58C90 70 65.9897 34.2401 17.9774 58H16.9811L12.7498 18.0753L12 11H144L139.072 57.5M137.525 58H139.019L139.072 57.5M137.525 58L139.072 57.5" stroke="#F5FBFE" stroke-width="2"/>
<path d="M69.104 103.56L68.4 103.752H49.712V108.488H66.352C63.28 121.224 56.496 130.76 48.176 135.944C49.264 136.712 51.184 138.568 51.952 139.72C61.296 133.384 69.04 121.544 72.24 104.776L69.104 103.56ZM101.104 97.8C97.328 102.792 91.056 109.192 85.936 113.672C83.696 109.128 81.904 104.264 80.56 99.208V87.624H75.632V139.144C75.632 140.424 75.184 140.808 73.904 140.872C72.624 140.872 68.528 140.936 63.92 140.744C64.688 142.152 65.648 144.52 65.84 145.928C71.728 145.928 75.44 145.8 77.552 144.968C79.664 144.072 80.56 142.536 80.56 139.144V111.688C85.616 124.808 93.296 135.56 104.368 141C105.136 139.592 106.8 137.672 107.952 136.712C99.504 133.064 92.848 126.088 87.92 117.448C93.424 113.16 100.336 106.44 105.392 100.872L101.104 97.8Z" fill="#F5FBFE"/>
</svg>
